{"glyphs":{":":{"x_min":0,"x_max":273,"ha":273,"o":"m 55 526 l 193 526 l 193 389 l 55 389 z m 55 137 l 193 137 l 193 0 l 55 0 z"},"$":{"x_min":0,"x_max":456,"ha":456,"o":"m 198 69 q 120 76 76 120 q 33 165 33 235 l 34 247 l 144 247 l 144 240 q 144 208 159 188 q 174 168 198 161 l 198 304 q 149 318 117 332 q 85 347 63 378 q 41 408 41 458 q 41 527 84 568 q 127 609 198 616 l 198 723 l 253 723 l 253 617 q 321 611 364 573 q 407 535 407 475 l 406 452 l 296 452 l 296 462 q 296 510 253 526 l 253 397 q 305 383 338 368 q 372 354 396 322 q 420 291 420 238 q 420 81 253 69 l 253 -49 l 198 -49 z m 198 526 q 177 519 164 504 q 151 489 151 468 q 151 448 163 436 q 175 423 198 414 z m 310 223 q 310 246 296 260 q 281 275 253 286 l 253 159 q 278 165 294 181 q 310 197 310 223 z"},"?":{"x_min":0,"x_max":501,"ha":501,"o":"m 202 240 q 202 279 216 306 q 231 334 260 369 q 291 406 306 436 q 322 465 322 509 q 322 536 307 564 q 292 591 252 591 q 208 591 192 558 q 175 526 175 486 l 176 459 l 50 459 q 47 483 47 494 q 47 551 71 598 q 95 644 143 671 q 191 698 260 698 q 348 698 400 649 q 453 600 453 520 q 453 455 434 417 q 416 379 381 339 q 354 308 341 284 q 328 260 328 225 l 328 197 l 202 197 z m 197 137 l 335 137 l 335 0 l 197 0 z"},"<":{"x_min":0,"x_max":479,"ha":479,"o":"m 34 197 l 34 324 l 446 531 l 446 413 l 135 261 l 446 109 l 446 -9 z"},"'":{"x_min":0,"x_max":195,"ha":195,"o":"m 37 539 l 37 686 l 159 686 l 159 539 l 138 407 l 59 407 z"},"=":{"x_min":0,"x_max":479,"ha":479,"o":"m 33 412 l 445 412 l 445 308 l 33 308 z m 33 199 l 445 199 l 445 96 l 33 96 z"},"a":{"x_min":0,"x_max":456,"ha":456,"o":"m 14 136 q 14 236 82 278 q 150 320 275 320 l 275 375 q 275 406 264 423 q 252 440 220 440 q 187 440 172 424 q 157 407 157 385 l 157 370 l 40 370 q 39 376 39 392 q 39 458 88 498 q 136 538 217 538 q 307 538 352 498 q 396 458 396 383 l 396 124 q 396 106 404 98 q 412 89 424 89 l 448 89 l 448 4 q 418 -12 377 -12 q 342 -12 318 6 q 293 25 284 57 l 279 57 q 254 22 224 5 q 195 -12 146 -12 q 97 -12 56 22 q 14 55 14 136 z m 275 203 l 275 233 q 214 233 176 214 q 137 194 137 147 q 137 119 152 104 q 166 88 196 88 q 236 88 256 120 q 275 152 275 203 z"},"L":{"x_min":0,"x_max":501,"ha":501,"o":"m 60 686 l 188 686 l 188 120 l 478 120 l 478 0 l 60 0 z"},"3":{"x_min":0,"x_max":456,"ha":456,"o":"m 25 194 l 25 212 l 150 212 l 150 191 q 150 142 170 116 q 189 89 226 89 q 261 89 281 114 q 301 140 301 190 q 301 298 219 298 l 186 298 l 186 399 l 221 399 q 251 399 270 426 q 289 454 289 505 q 289 597 226 597 q 195 597 178 573 q 162 549 162 501 l 162 482 l 37 482 l 37 510 q 37 566 61 608 q 85 651 128 674 q 170 698 225 698 q 312 698 363 649 q 414 600 414 510 q 414 453 390 416 q 367 380 325 356 l 325 352 q 371 335 398 292 q 426 249 426 184 q 426 94 371 41 q 316 -12 228 -12 q 131 -12 78 44 q 25 99 25 194 z"},";":{"x_min":0,"x_max":273,"ha":273,"o":"m 55 526 l 193 526 l 193 389 l 55 389 z m 109 0 l 54 0 l 54 137 l 192 137 l 192 12 l 126 -156 l 54 -156 z"},"J":{"x_min":0,"x_max":456,"ha":456,"o":"m 9 163 l 9 216 l 136 216 l 136 173 q 136 137 153 118 q 170 98 203 98 q 235 98 252 118 q 268 137 268 173 l 268 686 l 396 686 l 396 163 q 396 78 346 33 q 296 -12 203 -12 q 110 -12 60 33 q 9 78 9 163 z"},"V":{"x_min":0,"x_max":547,"ha":547,"o":"m 0 686 l 132 686 l 276 195 l 280 195 l 422 686 l 547 686 l 338 0 l 209 0 z"},"\"":{"x_min":0,"x_max":389,"ha":389,"o":"m 45 539 l 45 686 l 167 686 l 167 539 l 146 407 l 67 407 z m 226 539 l 226 686 l 348 686 l 348 539 l 327 407 l 248 407 z"},"7":{"x_min":0,"x_max":456,"ha":456,"o":"m 303 574 l 23 574 l 23 686 l 433 686 l 433 605 q 348 477 290 335 q 231 193 231 51 q 231 24 232 0 l 99 0 q 99 154 158 306 q 216 459 303 574 z"},"S":{"x_min":0,"x_max":547,"ha":547,"o":"m 30 201 l 31 223 l 164 223 l 163 207 q 163 157 192 128 q 221 98 273 98 q 326 98 352 122 q 377 145 377 179 q 377 213 359 234 q 341 256 314 268 q 288 280 240 296 q 177 316 138 336 q 99 356 72 397 q 44 438 44 506 q 44 568 75 612 q 106 655 158 676 q 210 698 273 698 q 371 698 434 648 q 496 597 496 496 l 496 484 l 365 484 l 365 493 q 365 537 340 562 q 315 588 272 588 q 227 588 202 568 q 176 547 176 515 q 176 487 193 469 q 210 451 236 440 q 261 429 306 415 q 371 394 411 374 q 451 355 480 314 q 509 273 509 206 q 509 93 444 40 q 380 -12 267 -12 q 202 -12 148 12 q 94 37 62 85 q 30 133 30 201 z"},"}":{"x_min":0,"x_max":319,"ha":319,"o":"m 21 -82 q 100 -82 100 -21 q 100 19 104 99 l 107 175 q 109 229 134 256 q 159 283 215 283 l 215 293 q 159 293 134 320 q 109 348 107 401 l 104 477 q 100 557 100 597 q 100 631 77 644 q 54 658 21 658 l 21 735 q 112 735 165 704 q 218 673 218 587 l 218 394 q 218 363 241 348 q 264 334 295 334 l 295 242 q 264 242 241 228 q 218 213 218 182 l 218 -11 q 218 -97 165 -128 q 112 -159 21 -159 z"},"Z":{"x_min":0,"x_max":501,"ha":501,"o":"m 16 49 l 298 572 l 37 572 l 37 686 l 473 686 l 473 636 l 191 114 l 480 114 l 480 0 l 16 0 z"},"x":{"x_min":0,"x_max":456,"ha":456,"o":"m 157 272 l 17 526 l 153 526 l 231 373 l 236 373 l 314 526 l 443 526 l 301 275 l 451 0 l 316 0 l 227 174 l 222 174 l 133 0 l 5 0 z"},")":{"x_min":0,"x_max":273,"ha":273,"o":"m 133 290 q 133 402 100 520 q 67 638 15 735 l 94 735 q 166 643 204 527 q 243 411 243 288 q 243 165 204 50 q 166 -65 94 -157 l 15 -157 q 67 -60 100 59 q 133 178 133 290 z"},"&":{"x_min":0,"x_max":592,"ha":592,"o":"m 440 0 l 408 43 q 336 -13 246 -13 q 179 -13 132 14 q 86 40 63 84 q 40 129 40 181 q 40 241 70 298 q 100 354 155 391 q 112 457 112 527 q 112 574 133 613 q 154 652 194 675 q 234 698 289 698 q 363 698 402 658 q 442 617 442 555 q 442 499 410 444 q 377 388 319 354 l 411 226 q 428 282 428 358 l 538 358 q 538 223 482 127 l 573 0 z m 228 530 q 228 506 236 480 q 244 453 258 432 q 289 447 309 480 q 329 514 329 547 q 329 569 318 583 q 306 597 283 597 q 256 597 242 578 q 228 560 228 530 z m 349 124 l 215 308 q 189 290 174 259 q 160 228 160 193 q 160 149 184 119 q 208 89 253 89 q 308 89 349 124 z"},"_":{"x_min":0,"x_max":456,"ha":456,"o":"m 0 -63 l 455 -63 l 455 -132 l 0 -132 z"},"v":{"x_min":0,"x_max":456,"ha":456,"o":"m 4 526 l 130 526 l 198 300 q 209 262 231 142 l 235 142 q 252 256 265 300 l 332 526 l 452 526 l 289 0 l 167 0 z"},"O":{"x_min":0,"x_max":638,"ha":638,"o":"m 34 343 q 34 521 108 610 q 183 698 319 698 q 455 698 530 610 q 604 521 604 343 q 604 165 530 76 q 455 -12 319 -12 q 183 -12 108 76 q 34 165 34 343 z m 472 318 l 472 368 q 472 473 433 530 q 394 588 319 588 q 244 588 205 530 q 166 473 166 368 l 166 318 q 166 213 205 156 q 244 98 319 98 q 394 98 433 156 q 472 213 472 318 z"},"(":{"x_min":0,"x_max":273,"ha":273,"o":"m 30 288 q 30 411 68 527 q 107 643 179 735 l 258 735 q 206 638 173 520 q 140 402 140 290 q 140 178 173 59 q 206 -60 258 -157 l 179 -157 q 107 -65 68 50 q 30 165 30 288 z"},"C":{"x_min":0,"x_max":592,"ha":592,"o":"m 34 343 q 34 521 104 610 q 175 698 307 698 q 420 698 490 631 q 559 564 559 431 l 428 431 q 428 508 396 548 q 363 588 307 588 q 237 588 202 530 q 166 473 166 368 l 166 318 q 166 213 202 156 q 239 98 311 98 q 368 98 401 138 q 434 177 434 254 l 559 254 q 559 124 490 56 q 421 -12 307 -12 q 175 -12 104 76 q 34 165 34 343 z"},"W":{"x_min":0,"x_max":774,"ha":774,"o":"m 0 686 l 127 686 l 209 264 q 215 236 222 168 l 226 168 q 233 236 239 264 l 322 686 l 467 686 l 549 264 q 554 238 562 168 l 566 168 q 572 232 579 264 l 663 686 l 773 686 l 624 0 l 495 0 l 402 437 q 394 470 388 534 l 384 534 q 376 465 370 437 l 278 0 l 149 0 z"},"A":{"x_min":0,"x_max":592,"ha":592,"o":"m 221 686 l 370 686 l 591 0 l 460 0 l 418 135 l 165 135 l 124 0 l 0 0 z m 383 249 l 314 478 q 304 512 294 571 l 290 571 q 280 508 270 478 l 200 249 z"},"f":{"x_min":0,"x_max":273,"ha":273,"o":"m 62 425 l 9 425 l 9 526 l 62 526 l 62 590 q 62 650 91 690 q 120 731 186 731 q 206 731 232 728 q 257 724 273 719 l 273 630 l 224 630 q 204 630 193 619 q 182 608 182 587 l 182 526 l 273 526 l 273 425 l 182 425 l 182 0 l 62 0 z"},"Q":{"x_min":0,"x_max":638,"ha":638,"o":"m 331 -12 l 319 -12 q 183 -12 108 76 q 34 165 34 343 q 34 521 108 610 q 183 698 319 698 q 455 698 530 610 q 604 521 604 343 q 604 217 566 136 q 527 54 455 17 l 587 -124 l 430 -124 z m 472 318 l 472 368 q 472 473 433 530 q 394 588 319 588 q 244 588 205 530 q 166 473 166 368 l 166 318 q 166 213 205 156 q 244 98 319 98 q 394 98 433 156 q 472 213 472 318 z"},"w":{"x_min":0,"x_max":638,"ha":638,"o":"m 1 526 l 121 526 l 171 310 q 186 243 192 145 l 196 145 q 204 238 218 309 l 263 526 l 383 526 l 428 308 q 438 260 450 145 l 454 145 q 469 252 480 308 l 526 526 l 637 526 l 510 0 l 389 0 l 337 251 q 327 301 322 381 l 316 381 q 311 303 301 252 l 250 0 l 129 0 z"},"-":{"x_min":0,"x_max":273,"ha":273,"o":"m 16 329 l 257 329 l 257 211 l 16 211 z"},"E":{"x_min":0,"x_max":547,"ha":547,"o":"m 60 686 l 497 686 l 497 572 l 188 572 l 188 408 l 453 408 l 453 294 l 188 294 l 188 114 l 503 114 l 503 0 l 60 0 z"},"s":{"x_min":0,"x_max":456,"ha":456,"o":"m 33 155 l 34 167 l 156 167 l 156 160 q 157 121 178 104 q 199 86 228 86 q 256 86 277 100 q 298 113 298 143 q 298 175 274 190 q 250 204 198 218 q 148 232 117 246 q 86 260 64 292 q 41 324 41 378 q 41 455 94 496 q 146 538 229 538 q 306 538 356 500 q 407 461 407 395 l 406 372 l 284 372 l 284 374 q 283 440 225 440 q 197 440 180 426 q 163 412 163 388 q 163 360 186 348 q 209 335 258 322 q 309 309 341 294 q 373 280 396 248 q 420 215 420 158 q 420 -12 224 -12 q 134 -12 84 34 q 33 79 33 155 z"},">":{"x_min":0,"x_max":479,"ha":479,"o":"m 34 109 l 345 261 l 34 413 l 34 531 l 446 324 l 446 197 l 34 -9 z"},"l":{"x_min":0,"x_max":228,"ha":228,"o":"m 54 723 l 174 723 l 174 0 l 54 0 z"},"8":{"x_min":0,"x_max":456,"ha":456,"o":"m 30 188 q 30 308 118 352 q 81 376 62 416 q 44 457 44 507 q 44 590 92 644 q 140 698 228 698 q 316 698 364 644 q 412 590 412 507 q 412 457 393 416 q 374 376 337 352 q 426 308 426 188 q 426 99 377 44 q 328 -12 228 -12 q 128 -12 79 44 q 30 99 30 188 z m 291 499 q 291 547 274 572 q 258 598 228 598 q 198 598 182 573 q 166 548 166 499 q 166 450 182 425 q 198 400 228 400 q 258 400 274 426 q 291 451 291 499 z m 302 194 q 302 246 283 274 q 264 301 228 301 q 192 301 173 274 q 154 246 154 194 q 154 142 173 115 q 192 88 228 88 q 264 88 283 115 q 302 142 302 194 z"},"\\":{"x_min":0,"x_max":228,"ha":228,"o":"m 1 735 l 86 735 l 228 -49 l 142 -49 z"},"e":{"x_min":0,"x_max":456,"ha":456,"o":"m 31 263 q 31 538 233 538 q 329 538 376 471 q 423 404 423 263 l 423 233 l 156 233 q 157 159 176 122 q 194 86 237 86 q 268 86 286 112 q 304 139 304 186 l 423 186 q 423 88 372 38 q 321 -12 237 -12 q 134 -12 82 56 q 31 123 31 263 z m 297 320 q 297 440 233 440 q 196 440 178 410 q 160 379 157 320 z"},"b":{"x_min":0,"x_max":501,"ha":501,"o":"m 172 65 l 167 65 l 155 0 l 55 0 l 55 723 l 175 723 l 175 472 l 180 472 q 194 503 226 520 q 257 538 297 538 q 371 538 416 470 q 460 401 460 264 q 460 125 416 56 q 371 -12 291 -12 q 253 -12 222 8 q 191 27 172 65 z m 335 244 l 335 282 q 335 356 316 392 q 297 429 255 429 q 213 429 194 392 q 175 354 175 280 l 175 244 q 175 170 194 134 q 213 97 255 97 q 297 97 316 134 q 335 170 335 244 z"},"%":{"x_min":0,"x_max":729,"ha":729,"o":"m 35 517 q 35 616 70 657 q 104 698 173 698 q 242 698 276 657 q 311 616 311 517 q 311 418 276 378 q 242 337 173 337 q 104 337 70 378 q 35 418 35 517 z m 532 686 l 618 686 l 199 0 l 114 0 z m 222 510 l 222 525 q 222 574 212 600 q 201 625 173 625 q 145 625 134 600 q 124 574 124 525 l 124 510 q 124 461 134 436 q 145 410 173 410 q 201 410 212 436 q 222 461 222 510 z m 419 168 q 419 267 454 308 q 488 349 557 349 q 626 349 660 308 q 695 267 695 168 q 695 69 660 28 q 626 -12 557 -12 q 488 -12 454 28 q 419 69 419 168 z m 606 161 l 606 176 q 606 225 596 250 q 585 276 557 276 q 529 276 518 250 q 508 225 508 176 l 508 161 q 508 112 518 86 q 529 61 557 61 q 585 61 596 86 q 606 112 606 161 z"},"m":{"x_min":0,"x_max":729,"ha":729,"o":"m 55 526 l 155 526 l 167 461 l 173 461 q 194 495 226 516 q 257 538 298 538 q 382 538 411 461 q 433 495 468 516 q 503 538 547 538 q 677 538 677 369 l 677 0 l 557 0 l 557 336 q 557 386 543 408 q 529 429 498 429 q 468 429 446 402 q 425 374 425 332 l 425 0 l 307 0 l 307 336 q 307 386 292 408 q 278 429 247 429 q 216 429 196 400 q 175 370 175 324 l 175 0 l 55 0 z"},"#":{"x_min":0,"x_max":456,"ha":456,"o":"m 68 195 l 5 195 l 5 279 l 87 279 l 118 420 l 44 420 l 44 504 l 137 504 l 181 698 l 269 698 l 225 504 l 300 504 l 344 698 l 432 698 l 388 504 l 450 504 l 450 420 l 369 420 l 338 279 l 411 279 l 411 195 l 319 195 l 275 0 l 187 0 l 231 195 l 156 195 l 112 0 l 24 0 z m 250 279 l 281 420 l 206 420 l 175 279 z"},",":{"x_min":0,"x_max":228,"ha":228,"o":"m 100 0 l 45 0 l 45 137 l 183 137 l 183 12 l 117 -156 l 45 -156 z"},"n":{"x_min":0,"x_max":501,"ha":501,"o":"m 55 526 l 155 526 l 167 461 l 173 461 q 196 495 229 516 q 262 538 306 538 q 371 538 408 498 q 446 457 446 369 l 446 0 l 326 0 l 326 336 q 326 385 308 407 q 291 429 257 429 q 222 429 198 398 q 175 368 175 324 l 175 0 l 55 0 z"},"h":{"x_min":0,"x_max":501,"ha":501,"o":"m 55 723 l 175 723 l 175 470 l 179 470 q 199 499 231 518 q 263 538 306 538 q 371 538 408 498 q 446 457 446 369 l 446 0 l 326 0 l 326 336 q 326 385 308 407 q 291 429 257 429 q 222 429 198 398 q 175 368 175 324 l 175 0 l 55 0 z"},"z":{"x_min":0,"x_max":410,"ha":410,"o":"m 18 51 l 222 425 l 30 425 l 30 526 l 385 526 l 385 476 l 180 101 l 392 101 l 392 0 l 18 0 z"},"B":{"x_min":0,"x_max":592,"ha":592,"o":"m 60 686 l 355 686 q 409 686 452 664 q 494 643 518 604 q 542 566 542 516 q 542 459 512 418 q 483 376 437 360 l 437 356 q 490 340 524 294 q 558 248 558 184 q 558 128 530 86 q 503 45 457 22 q 411 0 355 0 l 60 0 z m 320 408 q 364 408 388 432 q 411 456 411 493 q 411 531 388 552 q 365 572 326 572 l 188 572 l 188 408 z m 334 114 q 375 114 401 136 q 427 159 427 200 q 427 242 402 268 q 376 295 328 295 l 188 295 l 188 114 z"},"K":{"x_min":0,"x_max":592,"ha":592,"o":"m 60 686 l 189 686 l 189 335 l 440 686 l 583 686 l 380 407 l 589 0 l 445 0 l 296 306 l 189 175 l 189 0 l 60 0 z"},"R":{"x_min":0,"x_max":592,"ha":592,"o":"m 60 686 l 347 686 q 448 686 502 632 q 557 578 557 490 q 557 428 526 382 q 496 336 442 314 l 574 0 l 435 0 l 321 286 l 188 286 l 188 0 l 60 0 z m 329 399 q 374 399 396 422 q 419 446 419 490 q 419 529 398 550 q 377 572 334 572 l 188 572 l 188 399 z"},"T":{"x_min":0,"x_max":501,"ha":501,"o":"m 187 572 l 17 572 l 17 686 l 485 686 l 485 572 l 315 572 l 315 0 l 187 0 z"},"P":{"x_min":0,"x_max":547,"ha":547,"o":"m 60 686 l 305 686 q 408 686 464 629 q 520 572 520 480 q 520 416 493 368 q 466 319 418 292 q 369 266 305 266 l 188 266 l 188 0 l 60 0 z m 292 379 q 338 379 363 406 q 388 432 388 480 q 388 522 362 547 q 337 572 292 572 l 188 572 l 188 379 z"},"|":{"x_min":0,"x_max":230,"ha":230,"o":"m 70 723 l 160 723 l 160 -173 l 70 -173 z"},"t":{"x_min":0,"x_max":273,"ha":273,"o":"m 62 129 l 62 425 l 9 425 l 9 526 l 62 526 l 80 674 l 182 674 l 182 526 l 258 526 l 258 425 l 182 425 l 182 132 q 182 111 193 100 q 204 89 224 89 l 258 89 l 258 0 q 245 -5 224 -8 q 203 -12 186 -12 q 120 -12 91 28 q 62 69 62 129 z"},"M":{"x_min":0,"x_max":683,"ha":683,"o":"m 53 686 l 233 686 l 318 308 q 327 265 345 153 l 349 153 q 363 270 372 308 l 456 686 l 630 686 l 630 0 l 512 0 l 512 437 q 512 466 517 547 l 513 547 l 489 439 l 393 0 l 282 0 l 185 441 l 161 547 l 157 547 q 162 463 162 437 l 162 0 l 53 0 z"},"g":{"x_min":0,"x_max":501,"ha":501,"o":"m 16 -61 q 16 9 83 46 q 41 72 41 125 q 41 158 62 182 q 84 205 118 217 q 54 264 54 359 q 54 442 104 490 q 155 538 248 538 q 298 538 336 523 q 363 542 375 568 q 387 595 387 614 l 486 614 q 486 506 401 480 q 443 433 443 359 q 443 276 392 228 q 342 180 248 180 l 198 180 q 182 180 172 171 q 162 162 162 148 q 162 135 171 126 q 180 117 193 117 l 375 117 q 426 117 460 80 q 495 42 495 -20 q 495 -68 472 -105 q 450 -142 411 -162 q 372 -182 325 -182 l 132 -182 q 83 -182 50 -148 q 16 -114 16 -61 z m 323 359 q 323 402 304 426 q 285 449 248 449 q 212 449 193 426 q 174 402 174 359 q 174 316 193 292 q 212 269 248 269 q 285 269 304 292 q 323 316 323 359 z m 320 -91 q 343 -91 358 -78 q 374 -64 374 -42 q 374 -20 360 -7 q 346 6 325 6 l 185 6 q 165 6 151 -8 q 137 -22 137 -42 q 137 -64 150 -78 q 164 -91 185 -91 z"},"j":{"x_min":0,"x_max":228,"ha":228,"o":"m -37 -170 l -37 -81 l 7 -81 q 54 -81 54 -33 l 54 526 l 174 526 l 174 -41 q 174 -102 146 -142 q 118 -182 52 -182 q 31 -182 6 -178 q -20 -175 -37 -170 z m 53 723 l 174 723 l 174 608 l 53 608 z"},"i":{"x_min":0,"x_max":228,"ha":228,"o":"m 54 526 l 174 526 l 174 0 l 54 0 z m 53 723 l 174 723 l 174 608 l 53 608 z"},"y":{"x_min":0,"x_max":456,"ha":456,"o":"m 44 -173 l 44 -81 l 98 -81 q 125 -81 147 -61 q 169 -41 179 0 l 4 526 l 131 526 l 210 279 q 222 241 238 142 l 242 142 q 256 235 267 278 l 332 526 l 452 526 l 308 27 q 280 -70 236 -126 q 192 -182 122 -182 q 91 -182 68 -178 q 44 -175 44 -173 z"},"@":{"x_min":0,"x_max":800,"ha":800,"o":"m 25 262 q 25 415 76 512 q 128 610 215 654 q 302 698 412 698 q 578 698 677 606 q 776 513 776 321 q 776 215 746 148 q 715 81 670 52 q 624 22 577 22 q 531 22 508 38 q 486 54 473 85 l 468 85 q 446 53 419 38 q 392 22 348 22 q 303 22 266 52 q 228 83 228 156 q 228 247 290 285 q 352 323 465 323 l 465 373 q 465 401 454 416 q 444 432 415 432 q 384 432 371 418 q 358 403 358 382 l 358 369 l 252 369 q 251 374 251 389 q 251 448 295 484 q 339 521 412 521 q 494 521 534 484 q 575 448 575 380 l 575 152 q 575 114 605 114 q 645 114 674 164 q 703 214 703 322 q 703 478 625 554 q 547 629 411 629 q 263 629 180 536 q 98 443 98 261 q 98 88 167 2 q 236 -84 380 -84 q 415 -84 465 -74 q 515 -65 540 -52 l 540 -126 q 511 -137 462 -145 q 414 -153 380 -153 q 210 -153 118 -51 q 25 51 25 262 z m 465 217 l 465 244 q 340 244 340 166 q 340 141 353 127 q 366 113 393 113 q 430 113 448 142 q 465 171 465 217 z"},".":{"x_min":0,"x_max":228,"ha":228,"o":"m 45 137 l 183 137 l 183 0 l 45 0 z"},"p":{"x_min":0,"x_max":501,"ha":501,"o":"m 55 526 l 155 526 l 167 461 l 172 461 q 191 499 222 518 q 253 538 291 538 q 371 538 416 470 q 460 401 460 262 q 460 125 416 56 q 371 -12 297 -12 q 257 -12 226 6 q 194 23 180 54 l 175 54 l 175 -173 l 55 -173 z m 335 244 l 335 282 q 335 356 316 392 q 297 429 255 429 q 213 429 194 392 q 175 356 175 282 l 175 246 q 175 172 194 134 q 213 97 255 97 q 297 97 316 134 q 335 170 335 244 z"},"X":{"x_min":0,"x_max":547,"ha":547,"o":"m 194 360 l 18 686 l 161 686 l 276 462 l 280 462 l 395 686 l 528 686 l 351 362 l 546 0 l 404 0 l 270 259 l 266 259 l 133 0 l 0 0 z"},"*":{"x_min":0,"x_max":319,"ha":319,"o":"m 131 483 l 47 423 l 8 491 l 101 533 l 8 577 l 47 643 l 131 584 l 121 686 l 199 686 l 189 585 l 273 643 l 312 577 l 219 533 l 312 491 l 273 423 l 189 483 l 199 381 l 121 381 z"},"Y":{"x_min":0,"x_max":547,"ha":547,"o":"m 210 259 l 0 686 l 135 686 l 275 385 l 279 385 l 418 686 l 547 686 l 338 259 l 338 0 l 210 0 z"},"c":{"x_min":0,"x_max":456,"ha":456,"o":"m 41 263 q 41 404 90 471 q 138 538 236 538 q 323 538 372 486 q 420 435 420 328 l 297 328 q 297 437 236 437 q 199 437 182 398 q 166 360 166 282 l 166 244 q 166 166 184 128 q 201 89 240 89 q 272 89 286 116 q 301 143 301 198 l 420 198 q 420 91 373 40 q 326 -12 240 -12 q 137 -12 89 54 q 41 121 41 263 z"},"!":{"x_min":0,"x_max":273,"ha":273,"o":"m 60 686 l 213 686 l 177 197 l 95 197 z m 68 137 l 206 137 l 206 0 l 68 0 z"},"/":{"x_min":0,"x_max":228,"ha":228,"o":"m 143 735 l 228 735 l 87 -49 l 1 -49 z"},"[":{"x_min":0,"x_max":273,"ha":273,"o":"m 49 735 l 248 735 l 248 640 l 165 640 l 165 -66 l 248 -66 l 248 -161 l 49 -161 z"},"6":{"x_min":0,"x_max":456,"ha":456,"o":"m 30 323 q 30 462 53 545 q 76 628 120 663 q 163 698 228 698 q 319 698 364 637 q 408 576 408 475 l 285 475 q 285 536 271 566 q 257 597 224 597 q 194 597 180 571 q 165 545 160 500 q 155 455 154 377 q 171 403 199 417 q 227 431 260 431 q 341 431 384 370 q 426 309 426 210 q 426 143 402 92 q 377 42 334 15 q 291 -12 237 -12 q 135 -12 82 64 q 30 141 30 323 z m 302 210 q 302 267 284 300 q 267 333 232 333 q 197 333 179 300 q 161 267 161 210 q 161 156 179 122 q 197 89 232 89 q 267 89 284 122 q 302 156 302 210 z"},"r":{"x_min":0,"x_max":319,"ha":319,"o":"m 55 526 l 155 526 l 169 449 l 175 449 q 188 489 209 514 q 230 538 266 538 q 295 538 316 530 l 316 414 l 273 414 q 229 414 202 386 q 175 358 175 293 l 175 0 l 55 0 z"},"2":{"x_min":0,"x_max":456,"ha":456,"o":"m 33 24 q 33 76 52 122 q 72 169 107 215 q 134 249 170 288 q 214 337 238 368 q 263 400 280 439 q 297 478 297 521 q 297 550 282 572 q 267 595 234 595 q 199 595 182 566 q 165 537 165 491 l 165 450 l 42 450 q 39 467 39 490 q 39 594 96 646 q 152 698 239 698 q 321 698 372 654 q 423 610 423 520 q 423 462 398 406 q 373 351 340 307 q 306 263 255 204 q 211 154 204 144 q 189 124 183 112 l 426 112 l 426 0 l 33 0 z"},"{":{"x_min":0,"x_max":319,"ha":319,"o":"m 101 -11 l 101 182 q 101 213 78 228 q 55 242 24 242 l 24 334 q 55 334 78 348 q 101 363 101 394 l 101 587 q 101 673 154 704 q 207 735 298 735 l 298 658 q 265 658 242 644 q 219 631 219 597 q 219 557 215 477 l 212 401 q 210 348 185 320 q 160 293 104 293 l 104 283 q 160 283 185 256 q 210 229 212 175 l 215 99 q 219 19 219 -21 q 219 -82 298 -82 l 298 -159 q 207 -159 154 -128 q 101 -97 101 -11 z"},"9":{"x_min":0,"x_max":456,"ha":456,"o":"m 48 211 l 171 211 q 171 150 185 120 q 199 89 232 89 q 262 89 276 115 q 291 141 296 186 q 301 231 302 309 q 285 283 257 269 q 229 255 196 255 q 115 255 72 316 q 30 377 30 476 q 30 543 54 594 q 79 644 122 671 q 165 698 219 698 q 321 698 374 622 q 426 545 426 363 q 426 224 403 141 q 380 58 336 23 q 293 -12 228 -12 q 137 -12 92 49 q 48 110 48 211 z m 295 476 q 295 530 277 564 q 259 597 224 597 q 189 597 172 564 q 154 530 154 476 q 154 419 172 386 q 189 353 224 353 q 259 353 277 386 q 295 419 295 476 z"}," ":{"x_min":0,"x_max":228,"ha":228,"o":""},"I":{"x_min":0,"x_max":228,"ha":228,"o":"m 50 686 l 178 686 l 178 0 l 50 0 z"},"H":{"x_min":0,"x_max":592,"ha":592,"o":"m 60 686 l 188 686 l 188 408 l 404 408 l 404 686 l 532 686 l 532 0 l 404 0 l 404 294 l 188 294 l 188 0 l 60 0 z"},"4":{"x_min":0,"x_max":456,"ha":456,"o":"m 255 155 l 8 155 l 8 251 q 60 342 104 460 q 149 578 181 698 l 301 698 q 284 616 248 526 q 211 435 173 362 q 135 288 112 256 l 255 256 l 255 410 q 274 448 293 501 q 312 554 322 596 l 375 596 l 375 256 l 445 256 l 445 155 l 375 155 l 375 0 l 255 0 z"},"~":{"x_min":0,"x_max":479,"ha":479,"o":"m 27 317 q 46 348 78 369 q 110 390 150 390 q 171 390 190 382 q 210 375 238 360 q 266 345 286 337 q 307 329 329 329 q 364 329 396 350 q 429 371 452 402 l 452 282 q 433 251 401 230 q 369 209 329 209 q 308 209 288 216 q 269 224 241 239 q 213 254 192 262 q 172 270 150 270 q 115 270 82 249 q 50 228 27 197 z"},"D":{"x_min":0,"x_max":592,"ha":592,"o":"m 60 686 l 283 686 q 413 686 486 601 q 558 516 558 353 q 558 180 486 90 q 414 0 283 0 l 60 0 z m 271 114 q 344 114 385 168 q 426 223 426 328 l 426 378 q 426 473 385 522 q 344 572 271 572 l 188 572 l 188 114 z"},"^":{"x_min":0,"x_max":479,"ha":479,"o":"m 188 686 l 295 686 l 452 294 l 342 294 l 241 564 l 142 294 l 32 294 z"},"0":{"x_min":0,"x_max":456,"ha":456,"o":"m 30 343 q 30 479 53 557 q 76 635 119 666 q 162 698 228 698 q 293 698 336 666 q 380 634 403 556 q 426 478 426 343 q 426 208 403 130 q 380 52 336 20 q 293 -12 228 -12 q 162 -12 119 20 q 76 51 53 129 q 30 207 30 343 z m 301 308 l 301 378 q 301 458 295 504 q 289 551 274 574 q 258 597 228 597 q 198 597 182 574 q 167 551 161 504 q 155 458 155 378 l 155 308 q 155 228 161 182 q 167 135 182 112 q 198 89 228 89 q 258 89 274 112 q 289 135 295 182 q 301 228 301 308 z"},"F":{"x_min":0,"x_max":501,"ha":501,"o":"m 60 686 l 463 686 l 463 572 l 188 572 l 188 399 l 423 399 l 423 285 l 188 285 l 188 0 l 60 0 z"},"`":{"x_min":0,"x_max":273,"ha":273,"o":"m 21 720 l 22 723 l 142 723 l 228 591 l 129 591 z"},"k":{"x_min":0,"x_max":456,"ha":456,"o":"m 54 723 l 174 723 l 174 317 l 321 526 l 449 526 l 293 312 l 457 0 l 324 0 l 218 218 l 174 164 l 174 0 l 54 0 z"},"u":{"x_min":0,"x_max":501,"ha":501,"o":"m 55 157 l 55 526 l 175 526 l 175 190 q 175 140 192 118 q 209 97 244 97 q 279 97 302 126 q 326 156 326 200 l 326 526 l 446 526 l 446 0 l 346 0 l 334 65 l 328 65 q 305 31 272 10 q 239 -12 195 -12 q 130 -12 92 28 q 55 69 55 157 z"},"]":{"x_min":0,"x_max":273,"ha":273,"o":"m 25 -66 l 108 -66 l 108 640 l 25 640 l 25 735 l 224 735 l 224 -161 l 25 -161 z"},"U":{"x_min":0,"x_max":592,"ha":592,"o":"m 61 215 l 61 686 l 189 686 l 189 219 q 189 160 217 129 q 245 98 296 98 q 347 98 376 129 q 404 160 404 219 l 404 686 l 532 686 l 532 215 q 532 105 470 46 q 408 -12 296 -12 q 184 -12 122 46 q 61 105 61 215 z"},"o":{"x_min":0,"x_max":501,"ha":501,"o":"m 41 263 q 41 404 93 471 q 145 538 251 538 q 357 538 409 471 q 461 404 461 263 q 461 122 409 55 q 357 -12 251 -12 q 145 -12 93 55 q 41 122 41 263 z m 336 244 l 336 282 q 336 360 316 398 q 296 437 251 437 q 206 437 186 398 q 166 360 166 282 l 166 244 q 166 166 186 128 q 206 89 251 89 q 296 89 316 128 q 336 166 336 244 z"},"N":{"x_min":0,"x_max":592,"ha":592,"o":"m 60 686 l 173 686 l 385 308 q 395 292 416 244 l 419 247 l 418 304 l 418 686 l 532 686 l 532 0 l 418 0 l 206 378 q 198 391 175 442 l 171 439 l 173 382 l 173 0 l 60 0 z"},"+":{"x_min":0,"x_max":479,"ha":479,"o":"m 187 203 l 33 203 l 33 307 l 187 307 l 187 511 l 290 511 l 290 307 l 445 307 l 445 203 l 290 203 l 290 0 l 187 0 z"},"G":{"x_min":0,"x_max":638,"ha":638,"o":"m 302 373 l 587 373 l 587 0 l 504 0 l 482 76 q 449 33 402 10 q 354 -12 299 -12 q 170 -12 102 76 q 34 163 34 343 q 34 522 109 610 q 184 698 325 698 q 396 698 456 668 q 515 639 551 582 q 587 525 587 446 l 456 446 q 456 513 418 550 q 379 588 321 588 q 243 588 204 531 q 166 474 166 368 l 166 318 q 166 211 204 154 q 243 98 322 98 q 381 98 418 144 q 456 189 456 263 l 302 263 z"},"q":{"x_min":0,"x_max":501,"ha":501,"o":"m 326 54 l 321 54 q 307 23 276 6 q 244 -12 204 -12 q 130 -12 86 56 q 41 125 41 262 q 41 401 86 470 q 130 538 210 538 q 248 538 279 518 q 310 499 329 461 l 334 461 l 346 526 l 446 526 l 446 -173 l 326 -173 z m 326 246 l 326 282 q 326 356 307 392 q 288 429 246 429 q 204 429 185 392 q 166 356 166 282 l 166 244 q 166 170 185 134 q 204 97 246 97 q 288 97 307 134 q 326 172 326 246 z"},"d":{"x_min":0,"x_max":501,"ha":501,"o":"m 41 264 q 41 401 86 470 q 130 538 204 538 q 244 538 276 520 q 307 503 321 472 l 326 472 l 326 723 l 446 723 l 446 0 l 346 0 l 334 65 l 329 65 q 310 27 279 8 q 248 -12 210 -12 q 130 -12 86 56 q 41 125 41 264 z m 326 244 l 326 280 q 326 354 307 392 q 288 429 246 429 q 204 429 185 392 q 166 356 166 282 l 166 244 q 166 170 185 134 q 204 97 246 97 q 288 97 307 134 q 326 170 326 244 z"},"1":{"x_min":0,"x_max":456,"ha":456,"o":"m 40 101 l 194 101 l 194 529 l 39 529 l 39 609 q 83 614 146 636 q 209 657 255 686 l 314 686 l 314 101 l 455 101 l 455 0 l 40 0 z"},"5":{"x_min":0,"x_max":456,"ha":456,"o":"m 30 213 l 155 213 q 155 155 176 122 q 196 88 232 88 q 267 88 288 123 q 309 158 309 224 q 309 282 290 315 q 270 348 239 348 q 191 348 165 290 l 49 306 l 72 686 l 404 686 l 404 574 l 178 574 l 168 412 q 210 446 266 446 q 340 446 386 390 q 433 333 433 224 q 433 112 380 50 q 326 -12 232 -12 q 140 -12 85 48 q 30 109 30 213 z"}}}
